<?xml version="1.0" encoding="utf-8"?>
<!-- Generator: Adobe Illustrator 15.1.0, SVG Export Plug-In . SVG Version: 6.00 Build 0)  -->
<!DOCTYPE svg PUBLIC "-//W3C//DTD SVG 1.1//EN" "http://www.w3.org/Graphics/SVG/1.1/DTD/svg11.dtd">
<svg version="1.1" xmlns="http://www.w3.org/2000/svg" xmlns:xlink="http://www.w3.org/1999/xlink" x="0px" y="0px" width="1024px"
	 height="768px" viewBox="0 0 1024 768" enable-background="new 0 0 1024 768" xml:space="preserve">
<g id="corp1" display="none">
	<path display="inline" d="M572.771,239.742c-1.261-9.342-3.875-18.61-8.521-26.854c-4.946-8.777-12.519-13.99-21.173-18.714
		c-10.559-5.762-21.697-10.488-32.845-14.971c-4.025-1.619-8.153-3.447-12.596-2.954c-4.686,0.521-8.539,3.299-12.265,5.979
		c-1.081,0.777-1.714,1.77-2.001,2.819c-19.537,5.517-33.955,21.98-44.155,38.854c-11.146,18.438-19.001,40.275-20.198,61.879
		c-2.7,48.725,40.369,78.927,78.118,100.041c9.613,5.377,20.574,10.188,31.648,6.591c11.473-3.727,18.716-15.243,23.775-25.46
		c10.304-20.804,14.359-44.689,18.205-67.396C574.105,279.832,575.455,259.62,572.771,239.742z M564.082,268.261
		c-0.715,20.16-4.65,40.22-9.113,59.842c-2.848,12.514-6.48,24.996-12.375,36.441c-5.098,9.896-13.209,21.231-25.784,18.8
		c-10.879-2.103-21.347-9.805-30.646-15.515c-9.491-5.828-18.659-12.194-27.07-19.507c-15.78-13.721-28.026-31.436-29.923-52.724
		c-1.86-20.872,5.743-42.542,15.352-60.754c9.434-17.88,23.909-36.498,44.703-40.956c2.688-0.576,3.739-2.66,3.579-4.756
		c2.864-2.033,5.544-3.488,9.371-2.357c6.87,2.03,13.589,5.392,20.112,8.317c10.27,4.605,22.478,9.325,30.032,18.015
		C564.613,227.25,564.705,250.694,564.082,268.261z"/>
</g>
<g id="corp2" display="none">
	<path display="inline" d="M608.03,188.478c-1.065-23.726-7.522-46.477-20.797-66.299c-7.242-10.813-16.301-20.514-24.443-30.655
		c-8.441-10.515-17.742-19.084-30.93-22.92c-5.919-1.722-12.099-2.532-18.125-3.786c-2.456-0.511-4.357,0.648-5.393,2.328
		c-23.892-6.434-50.024-8.657-73.264,1.229c-20.645,8.781-34.438,25.135-42.129,45.9c-7.424,20.047-8.706,42.334-7.95,63.508
		c0.772,21.666,4.568,42.861,9.259,63.977c5.914,26.632,13.321,52.936,24.228,77.987c5.421,12.452,11.921,24.424,19.537,35.669
		c7.113,10.504,15.06,20.16,25.96,26.888c19.159,11.826,45.455,12.214,66.644,6.427c20.741-5.664,42.4-17.554,54.966-35.414
		c7.42-10.546,10.194-25.083,12.709-37.472c2.996-14.758,4.359-29.832,5.448-44.832C605.733,243.681,609.263,215.908,608.03,188.478
		z M593.879,269.185c-1.06,15.361-2.517,30.686-5.583,45.791c-2.484,12.241-5.382,26.232-13.48,36.126
		c-13.254,16.188-36.584,27.458-57.13,30.218c-11.883,1.597-24.436,1.168-35.988-2.111c-11.988-3.402-21.505-11.03-29.123-20.687
		c-17.021-21.571-28.126-47.472-36.491-73.441c-7.819-24.272-13.978-49.61-17.936-74.81c-5.074-32.303-6.841-69.636,7.211-100.026
		c7.849-16.976,21.771-29.073,39.551-34.903c20.906-6.855,43.822-3.506,64.487,2.48c2.706,0.785,4.731-0.607,5.645-2.574
		c5.276,1.016,10.566,1.953,15.733,3.457c7.024,2.043,12.546,6.309,17.603,11.447c4.499,4.57,8.394,9.735,12.352,14.768
		c4.224,5.369,8.825,10.404,13.088,15.736c15.264,19.096,22.674,42.221,24.139,66.396
		C599.607,214.31,595.753,242.019,593.879,269.185z"/>
</g>
<g id="corp3" display="none">
	<path display="inline" d="M599.299,328.527c-1.383-12.312-5.765-24.232-11.974-34.911c-5.936-10.209-14.433-19.622-24.92-25.227
		c-10.117-5.407-21.219-9.275-32.381-11.826c-20.104-4.595-42.626-3.492-53.461,16.562c-11.143,20.625-8.478,50.167,0.453,71.102
		c4.798,11.248,10.725,22.243,18.299,31.874c6.206,7.892,15.749,17.378,26.804,13.965c1.767-0.545,2.805-1.733,3.246-3.103
		c0.759,0.542,1.753,0.844,2.987,0.76c12.394-0.843,24.427-4.62,35.953-9.066c10.887-4.2,22.156-8.575,29.316-18.209
		C600.259,351.517,600.484,339.085,599.299,328.527z M585.684,354.362c-5.035,8.327-16.967,11.924-25.52,15.224
		c-10.113,3.901-20.938,7.397-31.812,8.137c-2.416,0.165-3.925,1.694-4.521,3.51c-1.068-0.934-2.566-1.367-4.371-0.81
		c-6.582,2.032-12.833-6.132-16.38-10.51c-5.871-7.246-10.392-15.769-14.439-24.13c-7.465-15.421-10.132-32.432-8.467-49.484
		c0.856-8.763,3.53-18.137,9.621-24.725c6.98-7.55,17.857-7.889,27.411-7.053c11.851,1.037,23.822,4.958,34.628,9.805
		c11.178,5.014,19.513,12.68,26.063,23.032C587.447,312.446,595.78,337.667,585.684,354.362z"/>
</g>
<g id="corp4" display="none">
	<path display="inline" d="M697.762,273.745c-23.829-30.82-68.055-37.514-104.354-39.613c-19.73-1.141-39.518-0.646-59.256,0.003
		c-24.84,0.815-49.681,1.479-74.517,2.425c-32.671,1.244-65.341,2.568-98.034,3.11c-28.833,0.478-57.632-1.109-86.45-0.656
		c-13.474,0.211-26.992,1.211-40.213,3.906c-11.056,2.254-21.37,6.236-24.991,17.872c-3.159,10.15,1.199,22.112,6.015,30.991
		c4.622,8.522,11.677,15.367,19.292,21.207c15.623,11.979,35.181,18.745,53.979,23.831c19.736,5.34,39.967,8.087,60.017,11.905
		c46.952,8.939,93.629,22.438,141.332,26.721c-3.274,2.319-3.708,8.075,1.147,8.729c28.737,3.876,57.417-2.06,85.734-6.532
		c12.903-2.038,25.812-3.535,38.874-3.944c11.16-0.35,22.328-0.299,33.458-1.298c21.981-1.974,43.193-9.301,55.221-29.001
		C718.77,320.872,713.187,293.696,697.762,273.745z M695.464,339.855c-16.58,27.159-55.923,22.93-83.027,23.979
		c-28.775,1.114-57.497,9.174-86.32,11.332c2.391-2.844,1.179-8.424-3.646-8.375c-62.312,0.624-122.355-19.447-183.197-30.013
		c-20.14-3.497-40.207-6.982-59.721-13.236c-18.751-6.01-39.14-14.945-51.312-31.147c-5.818-7.744-11.056-19.117-8.65-28.945
		c1.266-5.171,5.925-7.725,10.673-9.097c6.526-1.887,13.278-3.035,20.015-3.837c27.344-3.252,55.026-0.769,82.46-0.619
		c61.941,0.338,123.885-3.501,185.786-5.256c38.892-1.103,78.619-3.721,116.873,5.079c17.83,4.102,35.489,11.17,48.879,23.981
		C702.396,291.038,708.973,317.728,695.464,339.855z"/>
</g>
<g id="jambe1" display="none">
	<path display="inline" d="M522.967,381.883c-0.551-6.374-10.555-6.428-10,0c0.887,10.291-4.684,19.153-10.547,27.137
		c-6.476,8.819-14.244,16.618-20.938,25.268c-7.38,9.536-12.975,20.489-18.118,31.354c-6.006,12.685-10.856,25.923-14.342,39.518
		c-3.223,12.569-4.621,25.284-5.17,38.214c-0.526,12.386-1.733,24.736-2.6,37.101c-1.55,22.118-2.439,45.375,3.686,66.93
		c-7.636-1.717-15.431-3.812-21.926-7.652c-5.563-3.29-10.592,5.355-5.047,8.635c9.828,5.812,22.105,8.124,33.127,10.588
		c3.386,0.758,7.59-2.356,6.15-6.15c-8.925-23.516-7.601-49.372-5.874-74.018c1.783-25.446,1.826-51.383,8.657-76.1
		c6.606-23.899,17.604-48.55,33.628-67.648C506.065,420.263,524.795,403.073,522.967,381.883z"/>
	<path display="inline" d="M597.357,631.839c-0.299-11.23-3.607-22.374-6.239-33.219c-3.102-12.783-4.664-25.927-6.599-38.925
		c-2.375-15.953-4.711-31.912-7.48-47.803c-2.765-15.859-6.647-31.484-9.337-47.352c-4.771-28.144-6.578-56.658-6.618-85.179
		c-0.009-6.448-10.009-6.449-10,0c0.044,31.41,2.481,62.643,7.972,93.583c2.809,15.828,6.629,31.45,9.322,47.314
		c2.7,15.906,4.968,31.884,7.355,47.84c1.864,12.453,3.686,24.814,6.687,37.047c2.483,10.125,6.224,21.594,4.804,32.143
		c-1.025,7.626-7.64,11.58-14.11,14.456c-8.462,3.761-18.201,5.342-27.321,6.49c-11.067,1.394-22.258,1.831-33.405,1.842
		c-6.448,0.007-6.449,10.007,0,10c17.791-0.018,35.926-1.026,53.232-5.396c8.378-2.115,16.603-5.367,23.302-10.923
		C595.578,648.238,597.579,640.167,597.357,631.839z"/>
</g>
<g id="jambe2" display="none">
	<path display="inline" d="M484.876,383.075c-2.354,12.119-3.519,24.388-4.313,36.696c-0.695,10.776-1.65,21.632-1.77,32.426
		c-0.042,3.852-0.211,7.7-0.555,11.537c-0.179,1.994-0.291,6.424-1.889,7.447c-2.868,1.836-8.449-0.245-11.326-1.077
		c-3.737-1.08-7.34-2.586-10.972-3.967c-6.039-2.296-8.624,7.374-2.658,9.643c8.495,3.23,17.667,7.314,26.928,5.286
		c8.975-1.966,9.549-12.36,10.118-19.748c1.94-25.211,1.234-50.637,6.079-75.584C495.742,379.434,486.104,376.748,484.876,383.075z"
		/>
	<path display="inline" d="M559.445,481.084c-2.474,0.005-4.896,0.068-7.286,0.351c1.854-34.589,5.493-69.086,5.563-103.753
		c0.013-6.449-9.987-6.448-10,0c-0.074,36.782-4.17,73.373-5.883,110.083c-0.145,3.089,3.332,5.9,6.329,4.821
		c3.761-1.354,7.312-1.495,11.276-1.502C565.894,491.072,565.895,481.072,559.445,481.084z"/>
</g>
<g id="jambe3">
	<path d="M504.099,382.721c-11.991-18.696-36.544-24.45-55.913-32.2c-26.131-10.456-52.221-22.363-81.026-16.501
		c-11.719,2.385-22.242,8.508-30.962,16.554c-10.271,9.477-15.7,21.77-19.389,35.022c-3.625,13.023-8.071,25.563-10.547,38.924
		c-2.25,12.138-4.056,25.636,0.196,37.514c3.107,8.681,9.206,15.848,14.852,22.974c5.996,7.567,7.299,17.604,12.81,25.45
		c2.357,3.355,6.593,4.862,10.191,6.447c4.979,2.193,8.658,5.941,11.868,10.254c5.724,7.69,11.721,16.789,14.296,26.311
		c-19.572,6.227-41.404,1.612-61.449,0.725c-6.45-0.285-6.422,9.716,0,10c22.485,0.995,47.003,6.246,68.556-2.699
		c2.77-1.149,3.925-3.176,3.492-6.15c-1.946-13.384-10.801-26.346-18.979-36.78c-3.772-4.813-8.496-8.426-14.065-10.879
		c-2.605-1.147-5.207-2.022-6.764-4.528c-1.838-2.958-3.002-6.334-4.277-9.557c-2.254-5.696-4.803-10.84-8.607-15.664
		c-4.018-5.095-8.04-10.13-11.072-15.895c-5.972-11.354-3.117-26.144-0.785-38.125c2.59-13.306,7.085-25.952,10.855-38.922
		c3.959-13.619,11.116-24.811,22.833-32.982c23.503-16.39,52.848-8.866,77.337,0.814c12.526,4.951,25.055,9.886,37.585,14.823
		c10.945,4.313,23.734,9.835,30.33,20.118C498.933,393.176,507.591,388.166,504.099,382.721z"/>
	<path d="M681.54,496.282c15.891-15.525,34.527-28.501,46.812-47.371c11.371-17.469,13.155-40.652,1.454-58.396
		c-11.114-16.852-30.875-25.869-48.845-33.39c-15.481-6.479-31.21-11.649-47.905-13.867c-16.964-2.253-35.79-0.216-46.835,14.252
		c-3.915,5.128,4.777,10.1,8.635,5.047c12.083-15.828,39.015-10.051,55.195-5.785c18.41,4.854,37.185,12.489,53.331,22.594
		c8.146,5.098,15.432,11.595,20.134,20.062c4.992,8.991,5.336,19.947,2.872,29.744c-5.343,21.246-25.583,36.373-41.159,50.16
		c-10.41,9.214-19.344,19.145-28.335,29.708c-10.528,12.369-22.088,25.022-28.656,40.066c-1.395,3.194-0.237,6.037,2.988,7.345
		c25.815,10.465,55.948,2.828,82.842,2.699c6.447-0.031,6.45-10.031,0-10c-13.492,0.064-26.933,1.546-40.404,2.143
		c-11.354,0.504-23.139,0.572-34.139-2.563c5.19-9.663,12.329-18.261,19.348-26.617C666.229,513.354,673.349,504.284,681.54,496.282
		z"/>
</g>
<g id="jambe4" display="none">
	<path display="inline" d="M535.107,743.695c-5.527-30.444-4.624-61.526-5.175-92.331c-0.56-31.231-4.394-61.903-9.06-92.75
		c-4.555-30.114-8.408-59.838-7.953-90.354c0.444-29.809,2.476-59.891-3.863-89.271c-1.36-6.303-10.999-3.629-9.643,2.658
		c6.264,29.033,3.917,59.02,3.478,88.474c-0.458,30.74,3.75,60.827,8.338,91.151c4.635,30.628,8.182,61.012,8.736,92.014
		c0.527,29.504-0.012,59.097,4.691,88.298c-3.918,0.394-8.533-1.279-11.855-2.32c-5.841-1.831-11.409-4.428-16.968-6.961
		c-5.822-2.653-10.908,5.964-5.047,8.635c11.742,5.352,29.148,15.211,42.021,8.403C534.906,748.233,535.498,745.853,535.107,743.695
		z"/>
	<path display="inline" d="M623.606,715.884c-6.353-0.875-11.617-4.194-17.489-6.499c-5.782-2.271-10.153-2.293-16.156-1.169
		c-1.926,0.361-2.868,1.018-3.778-0.298c-1.236-1.79-1.608-4.141-2.007-6.228c-0.953-4.998-0.64-10.309-0.599-15.37
		c0.253-31.504,0.331-63.048,3.356-94.446c1.532-15.906,3.221-31.788,3.898-47.763c0.7-16.486,0.168-33.063,0.168-49.562v-49.895
		c0-12.212-0.884-24.228-1.779-36.397c-0.929-12.638-2.5-27.74,2.885-39.65c2.635-5.827-5.964-10.916-8.617-5.047
		c-9.494,21-3.559,46.314-2.535,68.411c0.717,15.48,0.047,31.115,0.047,46.611v49.896c0,32.155-5.309,63.878-6.483,95.963
		c-0.581,15.889-0.974,31.859-1.19,47.758c-0.154,11.17-0.83,23.553,1.686,34.517c0.808,3.517,2.513,6.951,5.163,9.427
		c3.211,2.998,7.226,2.557,11.234,1.932c1.879-0.293,3.721-0.759,5.619-0.902c2.581-0.194,5.83,1.584,8.117,2.623
		c5.163,2.346,10.114,4.948,15.802,5.731C627.251,726.395,629.972,716.76,623.606,715.884z"/>
</g>
<g id="visage" display="none">
	<path display="inline" d="M550.159,332.302c-0.587-6.366-10.592-6.423-10,0c0.998,10.831-12.36,13.068-20.647,12.523
		c-3.814-0.25-4.019-2.355-4.559-5.635c-0.797-4.831-1.793-9.25-4.131-13.613c-3.047-5.685-11.68-0.635-8.635,5.047
		c2.716,5.067,2.218,10.761,4.324,15.954c2.727,6.723,9.304,8.237,15.959,8.371C535.564,355.212,551.551,347.399,550.159,332.302z"
		/>
	<path display="inline" d="M513,276.882c-6,0-6,10,0,10C520,286.882,520,276.882,513,276.882z"/>
	<path display="inline" d="M533,277.722c-6,0-6,10,0,10C540,287.722,540,277.722,533,277.722z"/>
</g>
<g id="visage2" display="none">
	<path display="inline" d="M705.33,280.085c-13.855-7.152-25.487-19.334-41.53-21.512c-6.303-0.856-9.023,8.778-2.658,9.643
		c7.714,1.047,14.359,4.628,20.76,8.775c-1.017,0.534-1.887,1.423-2.403,2.722c-15.258,38.358-58.919,52.624-96.211,58.861
		c-19.388,3.242-39.116,4.36-58.75,4.641c-28.583,0.409-57.796,1.978-85.715-5.182c-15.684-4.022-31.368-7.984-46.45-13.965
		c-13.321-5.283-31.669-13.753-35.165-29.229c-1.42-6.29-11.061-3.622-9.643,2.658c3.988,17.656,22.319,27.748,37.603,34.326
		c16.656,7.169,34.219,11.551,51.731,16.041c28.234,7.24,57.689,5.672,86.578,5.364c19.669-0.21,39.316-1.506,58.776-4.426
		c42.561-6.387,89.719-23.265,106.888-66.431c0.057-0.143,0.101-0.282,0.144-0.42c3.594,2.437,7.21,4.814,10.999,6.77
		C706.003,291.673,711.063,283.044,705.33,280.085z"/>
	<path display="inline" d="M365.83,273.363c-10.018,5.403-20.519,11.317-32.282,8.74c-6.285-1.377-8.957,8.263-2.658,9.643
		c14.694,3.219,27.347-2.93,39.987-9.748C376.554,278.936,371.504,270.302,365.83,273.363z"/>
	<path display="inline" d="M547,321.42c-6,0-6,10,0,10C554,331.42,554,321.42,547,321.42z"/>
	<path display="inline" d="M525,322.26c-7,0-7,10,0,10C531,332.26,531,322.26,525,322.26z"/>
</g>
<g id="visage3" display="none">
	<path display="inline" d="M532.555,350.832c-2.794-0.001-4.854,0.019-7.074-0.662c-2.605-0.8-5.444,0.923-6.15,3.492
		c-0.738,2.685,0.889,5.352,3.492,6.15c3.128,0.96,6.486,1.018,9.732,1.019C539.004,360.834,539.003,350.834,532.555,350.832z"/>
	<path display="inline" d="M517.603,285.909c-3.572-4.416-9.445,0.577-8.057,5.223c-7.785,3.133-10.496,14.749-11.16,22.223
		c-0.942,10.609,3.042,25.37,15.682,26.468C544.024,342.427,527.284,297.877,517.603,285.909z M517.218,329.92
		c-7.52,1.62-8.911-8.736-8.947-13.801c-0.006-0.886,0.035-1.767,0.108-2.644c1.715,0.547,3.628,0.227,5.022-1.167
		c1.859-1.859,2.015-5.235,0-7.071c-0.788-0.718-1.652-1.225-2.568-1.583c0.454-0.928,1.063-1.826,1.736-2.566
		c0.734-0.805,0.79-0.775,1.498-0.761c0.354,0.007,0.687-0.021,1.002-0.072c2.152,4.388,3.735,9.209,4.919,13.68
		C521.172,318.408,523.69,328.526,517.218,329.92z"/>
	<path display="inline" d="M576.25,307.774c-4.185-11.718-13.813-24.827-26.4-28.193c-1.645-0.44-3.698-0.034-4.864,1.286
		c-2.344,2.65-3.11,5.059-3.146,8.578c-0.018,1.707,0.674,2.957,1.695,3.76c-0.009,0.145-0.018,0.29-0.015,0.441
		c0.146,9.113,3.005,18.758,6.022,27.269c2.782,7.851,7.809,20.256,18.201,18.359c5.144-0.938,8.263-6.814,9.813-11.185
		C579.849,321.627,578.484,314.031,576.25,307.774z M555.258,293.69c-0.005,0-0.01-0.001-0.015-0.001
		c-0.572,0-1.145,0.057-1.714,0.139c-0.001-0.06-0.008-0.122-0.009-0.181c-0.009-0.544-0.093-1.038-0.23-1.49
		C553.965,292.629,554.62,293.145,555.258,293.69z M568.443,323.388c-0.305,1.764-0.958,3.747-2.112,5.151
		c-0.432,0.525-0.82,0.754-1.036,0.869c-0.195-0.159-0.415-0.42-0.866-0.894c-1.063-1.116-1.79-2.588-2.515-3.932
		c-1.863-3.457-3.108-7.23-4.27-10.967c-0.96-3.089-1.935-6.367-2.697-9.666c0.184-0.09,0.37-0.174,0.545-0.287
		c2.51-0.133,4.563-2.169,4.72-4.675c2.521,3.296,4.539,6.958,5.954,10.312C568,313.648,569.259,318.661,568.443,323.388z"/>
</g>
<g id="visage4" display="none">
	<path display="inline" d="M561.925,328.941c-0.116-6.441-10.117-6.452-10,0c0.049,2.695,0.309,5.384,0.455,8.075
		c0.102,1.895,0.593,4.897-0.056,6.884c0.021-0.373-0.809,0.283-2.06,0.311c-1.526,0.034-3.028-0.508-4.459-0.972
		c-2.607-0.845-5.831-2.623-7.253-5.057c-2.486-4.256-9.393-2.487-9.317,2.523c0.196,13.017-16.556,10.731-16.891-0.84
		c-0.187-6.434-10.187-6.452-10,0c0.316,10.905,7.925,18.955,18.761,19.916c7.49,0.664,13.164-3.556,16.038-9.5
		c5.655,3.5,12.919,5.073,18.575,3.025C565.448,349.784,562.067,336.831,561.925,328.941z"/>
	<path display="inline" d="M514.241,307.758c-4.045-4-8.76-7.831-14.138-9.826c-2.967-1.101-6.277-0.571-8.585,1.603
		c-3.052,2.874-2.347,7.781-1.601,11.407c1.267,6.154,10.449,3.764,9.716-2.187c2.838,1.695,5.115,3.68,7.537,6.075
		C511.759,319.366,518.832,312.297,514.241,307.758z"/>
	<path display="inline" d="M555.417,291.792c-3.502-3.896-8.57-5.823-13.546-3.69c-4.66,1.997-6.272,7.627-5.913,12.268
		c0.21,2.716,2.115,5,5,5c2.566,0,5.211-2.279,5-5c-0.12-1.539-0.095-2.163,0.226-3.209l0,0c-0.134,0.455,0.02,0.233,0.1,0.041
		c0.01-0.001,0.02-0.002,0.029-0.003c0.046,0.013,0.092,0.025,0.137,0.04c-0.34-0.072,0.711,0.422,0.796,0.477
		c-0.301-0.194,0.896,0.921,1.102,1.149c1.822,2.027,5.221,1.85,7.07,0C557.42,296.86,557.238,293.816,555.417,291.792z"/>
</g>
<g id="bras" display="none">
	<path display="inline" d="M483.813,338.91c-8.518,5.848-17.606,10.848-25.714,17.281c-7.638,6.059-12.813,14.151-15.589,23.455
		c-4.029,13.502-2.252,27.357,0.056,40.962c1.109,6.532,2.321,12.843,0.696,19.325c-1.032,1.034-1.634,2.464-1.382,4.037
		c-2.009,4.764-5.147,9.205-7.76,13.54c-3.338,5.538,5.311,10.562,8.635,5.047c2.173-3.605,4.289-7.134,6.109-10.724
		c1.069,0.556,2.191,1.003,3.348,1.38c1.524,2.926,3.006,5.869,4.093,8.99c2.105,6.051,11.768,3.449,9.643-2.658
		c-0.379-1.091-0.802-2.16-1.245-3.219c1.671,0.539,3.296,1.214,4.825,2.143c5.527,3.357,10.549-5.293,5.047-8.635
		c-3.88-2.357-8.214-3.331-12.618-4.205c-0.861-0.171-1.775-0.329-2.698-0.512c-0.179-0.351-0.359-0.701-0.537-1.053
		c-1.33-2.633-3.854-2.999-5.926-2.076c1.05-3.845,1.549-7.885,1.189-12.278c-1.177-14.343-5.544-27.666-3.038-42.199
		c1.651-9.576,6.05-17.314,13.416-23.585c7.442-6.337,16.459-10.861,24.498-16.381C494.139,343.92,489.145,335.249,483.813,338.91z"
		/>
	<path display="inline" d="M616.762,464.062c-2.418-2.42-4.813-4.836-6.849-7.562c0.805-1.241,1.513-2.578,2.087-4.051
		c5.014-12.871,2.931-27.111,2.851-40.583c-0.16-27.175-3.849-53.739-14.953-78.726c-2.614-5.883-11.229-0.791-8.635,5.047
		c10.121,22.774,13.207,47.162,13.57,71.878c0.177,12.038,2.091,25.202-1.47,36.874c-2.862,9.385-13.099,13.265-19.722,19.643
		c-4.653,4.479,2.427,11.542,7.07,7.07c2.595-2.498,5.515-4.613,8.382-6.748c2.188,5.268,3.829,10.726,5.11,16.307
		c1.443,6.284,11.084,3.619,9.643-2.658c-0.634-2.762-1.369-5.488-2.203-8.179C615.952,473.826,620.708,468.01,616.762,464.062z"/>
</g>
<g id="bras2" display="none">
	<path display="inline" d="M479.262,330.002c-28.868-8.652-59.158-9.91-88.836-14.07c-31.669-4.439-63.175-9.017-95.002-12.312
		c-32.698-3.385-65.349-6.745-97.864-11.646c-15.136-2.281-30.199-5.286-45.422-6.899c-4.182-0.443-9.277-0.977-12.905-3.496
		c-0.025-1.729-0.807-2.962-1.928-3.699c0.48-2.746-1.529-5.472-3.979-6.08c-0.724-2.601-1.165-5.308-1.622-7.917
		c-0.646-3.685-1.12-7.397-1.889-11.06c-1.325-6.31-10.963-3.633-9.643,2.658c1.429,6.807,1.969,13.987,4.102,20.572
		c-4.2,1.238-9.543,1.057-13.024,1.253c-7.265,0.408-15.013,0.128-22.039,2.277c-6.148,1.88-3.525,11.534,2.658,9.643
		c7.322-2.239,15.544-1.63,23.113-2.152c4.232-0.292,9.294-0.616,13.727-2.096c0.023,0.032,0.046,0.065,0.069,0.097
		c-1.215,4.9-4.637,9.009-8.16,12.6c-4.517,4.605,2.55,11.68,7.071,7.071c3.824-3.898,7.184-8.207,9.285-13.069
		c7.478,3.424,16.795,3.244,24.775,4.603c32.151,5.475,64.446,10.175,96.89,13.545c32.36,3.362,64.784,6.34,97.015,10.813
		c15.302,2.124,30.498,4.869,45.838,6.724c15.185,1.837,30.418,3.253,45.529,5.658c9.991,1.59,19.891,3.72,29.584,6.625
		C482.796,341.501,485.423,331.849,479.262,330.002z"/>
	<path display="inline" d="M718.758,197.229c-11.543-1.945-23.034-4.248-34.288-7.441c1.386-0.986,2.646-2.152,3.721-3.529
		c1.675-2.147,2.104-4.968,0-7.071c-1.749-1.749-5.391-2.153-7.07,0c-1.579,2.023-3.046,3.079-4.989,3.794
		c-1.288-1.764-2.929-3.31-4.918-4.576c-5.457-3.476-10.468,5.182-5.047,8.635c0.696,0.443,1.252,0.95,1.707,1.497
		c-1.096,2.233-0.735,5.357,1.747,6.888c-0.031,0.238-0.051,0.483-0.049,0.743c0.104,18.409,3.236,36.587,4.121,54.949
		c0.737,15.284,0.177,32.835-7.337,46.574c-7.282,13.317-23.428,15.909-37.076,18.022c-13.477,2.087-27.362,3.828-38.075,13.053
		c-4.895,4.215,2.211,11.256,7.07,7.071c10.747-9.254,27.329-9.261,40.607-11.628c14.609-2.605,28.251-8.225,36.108-21.472
		c7.917-13.346,8.978-30.922,8.863-46.052c-0.146-19.383-3.82-38.536-4.237-57.911c11.954,3.528,24.188,6.024,36.483,8.096
		C722.405,207.934,725.106,198.298,718.758,197.229z"/>
</g>
<g id="bras3" display="none">
	<path display="inline" d="M522.645,470.784c-3.286-3.405-5.938-7.579-6.098-12.432c-0.019-0.547-0.112-1.044-0.26-1.499
		c0.508-2.792-1.07-6.027-4.741-6.021c-25.521,0.043-66.291,3.265-72.793-29.867c-2.701-13.765,9.589-25.788,19.198-33.527
		c11.025-8.88,24.014-15.455,36.791-21.406c5.841-2.721,0.76-11.339-5.047-8.635c-14.412,6.713-28.419,14.368-40.721,24.524
		c-11.984,9.894-22.589,24.258-20.033,40.617c2.71,17.35,16.568,29.529,32.663,34.558c14.476,4.522,30.081,3.946,45.159,3.772
		c0.874,6.505,4.227,12.237,8.812,16.986C520.06,482.502,527.123,475.423,522.645,470.784z"/>
	<path display="inline" d="M530.207,435.49c-1.912-1.913-5.162-1.945-7.07,0c-1.405,1.432-2.197,3.215-2.305,5.216
		c-0.146,2.724,2.385,5,5,5c1.32,0,2.602-0.531,3.535-1.465c0.63-0.63,1.008-1.366,1.23-2.167
		C532.088,440.116,531.996,437.279,530.207,435.49z"/>
	<path display="inline" d="M655.656,439.485c-1.748-23.261-15.012-44.405-28.551-62.661c-10.388-14.006-22.036-26.979-33.032-40.495
		c-4.071-5.005-11.103,2.116-7.07,7.071c14.454,17.767,29.944,34.667,42.234,54.085c11.916,18.825,21.369,41.504,13.756,63.733
		c-12.615,36.835-59.297,4.14-81.429-10.582c-0.105-0.229-0.203-0.459-0.322-0.69c-1.047-2.045-2.815-2.715-4.526-2.477
		c-3.777-2.412-7.583-4.799-11.554-6.881c-5.705-2.99-10.76,5.64-5.047,8.635c1.238,0.649,2.464,1.322,3.684,2.004
		c-4.396,2.519-9.185,3.698-14.111,4.747c-0.213-0.653-0.545-1.275-1.019-1.817c-0.151-0.228-0.293-0.461-0.421-0.701
		c-0.025-0.089-0.048-0.178-0.067-0.268c-0.007-0.031-0.093-0.061-0.1-0.091c-0.001-0.005-0.081-0.01-0.081-0.015v0.006
		c0-2.227-2.326-3.938-4.768-3.938c-2.633,0-5.083,2.275-4.961,5c0.115,2.575,1.401,5.049,3.165,6.896
		c0.096,0.1,0.209,0.172,0.312,0.262c0.035,2.928,2.499,6.037,6.253,5.226c8.109-1.753,16.123-3.177,23.043-8.066
		c0.782-0.553,1.331-1.219,1.688-1.937c0.086,0.054,0.172,0.109,0.259,0.163c0.021,3.286-3.545,7.292-5.21,9.383
		c-2.861,3.594-6.084,6.914-8.62,10.76c-3.562,5.4,5.102,10.404,8.635,5.047c4.002-6.068,11.204-12.407,13.989-19.564
		c7.04,4.567,14.068,9.164,21.429,13.183c14.209,7.758,32.412,16.269,48.878,11.098C650.934,480.684,656.968,456.94,655.656,439.485
		z"/>
</g>
<g id="bras4" display="none">
	<path display="inline" d="M507.696,241.767c-4.935,1.136-9.727,2.79-14.614,4.079c2.16-4.505,4.021-9.15,5.638-13.895
		c2.086-6.121-7.575-8.726-9.643-2.658c-2.094,6.145-4.664,12.029-7.833,17.662c-4.597-1.106-8.088-4.428-11.55-8.436
		c-6.525-7.554-15.975-13.253-24.56-18.145c-16.926-9.645-41.212-21.616-60.699-13.319c-8.918,3.797-11.563,13.093-10.533,21.974
		c1.221,10.533,4.341,21.162,8.654,30.823c8.5,19.043,27.581,29.019,45.978,36.601c13.551,5.584,28.427,7.937,40.992,15.797
		c5.484,3.431,10.499-5.224,5.047-8.635c-11.006-6.886-23.808-10.021-36-14.101c-10.81-3.617-21.645-8.839-31.131-15.196
		c-7.667-5.138-13.007-12.249-16.74-20.611c-3.923-8.789-7.279-20.204-7.076-29.914c0.207-9.863,12.763-10.19,19.922-9.017
		c11.101,1.819,21.764,6.485,31.694,11.605c8.982,4.63,18.195,10.11,25.509,17.167c4.289,4.138,7.318,8.797,12.863,11.475
		c2.932,1.416,6.021,2.045,9.154,2.176c0.093,0.023,0.188,0.036,0.282,0.054c-0.128,1.269,0.266,2.614,1.431,3.795
		c2.977,3.016,5.426,6.292,7.622,9.912c3.338,5.504,11.988,0.482,8.635-5.047c-2.119-3.493-4.524-6.79-7.24-9.831
		c0.047-0.01,0.094-0.018,0.141-0.028c5.651-1.231,11.077-3.347,16.716-4.645C516.638,249.963,513.973,240.322,507.696,241.767z"/>
	<path display="inline" d="M650.864,223.318c-7.504-16.563-30.053-16.178-45.02-13.692c-9.549,1.586-18.784,4.747-27.611,8.662
		c-7.438,3.299-15.116,7.542-20.385,13.875c-3.172,3.813-4.956,8.343-7.04,12.728c-2.645-2.873-5.259-5.773-7.996-8.561
		c-4.522-4.607-11.59,2.468-7.07,7.071c3.313,3.376,6.446,6.92,9.676,10.375c-1.409,1.076-2.273,2.841-1.719,5.065
		c0.6,2.407,1.369,4.94,0.841,7.426c-0.565,2.664,0.75,5.396,3.492,6.15c2.508,0.69,5.584-0.825,6.15-3.492
		c0.706-3.329,0.463-6.51-0.164-9.726c5.659,5.496,9.701,12.629,13.715,19.323c3.312,5.523,11.959,0.498,8.635-5.047
		c-4.981-8.308-10.07-16.501-17.22-22.965c1.549-3.239,2.895-6.585,4.732-9.685c2.132-3.594,5.305-6.03,8.741-8.246
		c7.166-4.621,15.209-7.828,23.33-10.321c12.541-3.85,36.277-9.24,45.262,4.226c3.898,5.842,1.909,16.456,1.317,22.945
		c-0.752,8.241-1.952,16.772-4.515,24.668c-3.2,9.863-13.081,17.645-20.407,24.402c-8.178,7.544-15.818,15.319-20.128,25.749
		c-2.463,5.96,7.216,8.531,9.643,2.658c8.481-20.524,33.683-29.028,40.738-50.776c2.765-8.52,3.791-17.831,4.669-26.702
		C653.347,241.193,654.391,231.099,650.864,223.318z"/>
</g>
</svg>
